<?xml version="1.0" encoding="UTF-8"?>
<svg width="512px" height="512px" viewBox="0 0 512 512" version="1.1" xmlns="http://www.w3.org/2000/svg" xmlns:xlink="http://www.w3.org/1999/xlink">
    <title>ext_icon</title>
    <g id="selfmade" stroke="none" stroke-width="1" fill="none" fill-rule="evenodd">
        <g id="ext_icon">
            <rect id="Rectangle" stroke="#979797" fill="#FF8700" x="0.5" y="0.5" width="511" height="511"></rect>
            <g id="bird-duotone" transform="translate(61.000000, 60.000000)" fill="#FFFFFF" fill-rule="nonzero">
                <path d="M21.7108929,122.307692 L171,122.307692 C184.512054,122.307692 195.428571,111.376442 195.428571,97.8461538 L195.428571,73.3846154 C195.428571,32.8549038 227.567411,0 268.714286,0 C309.174107,0 342,32.8549038 342,73.3846154 L342,146.769231 C342,241.328365 265.431696,318 171,318 C76.5683036,318 0,241.328365 0,146.769231 L0,144.017308 C0,132.015865 9.725625,122.307692 21.7108929,122.307692 Z M268.714286,110.076923 C278.867411,110.076923 287.035714,101.897596 287.035714,91.7307692 C287.035714,81.5639423 278.867411,73.3846154 268.714286,73.3846154 C258.561161,73.3846154 250.392857,81.5639423 250.392857,91.7307692 C250.392857,101.897596 258.561161,110.076923 268.714286,110.076923 Z" id="Shape"></path>
                <path d="M168.945127,317.036996 L193.516147,364.138825 C198.247213,373.070615 194.813375,384.139926 185.885396,388.873011 C176.957416,393.606096 165.206059,390.170793 161.161761,381.239003 L124,311.158809 C138.345813,315.204834 153.378394,317.495036 168.945127,317.036996 L168.945127,317.036996 Z M235.561589,305.204283 L266.771363,364.138825 C271.502429,373.070615 268.068591,384.139926 259.140612,388.873011 C250.212632,393.606096 238.461275,390.170793 234.416976,381.239003 L199.544441,315.357514 C212.058874,313.296332 224.115462,309.861028 235.561589,305.204283 L235.561589,305.204283 Z M342.163189,72.7487384 C342.163189,69.1989246 341.781652,65.0460243 341.094884,61 L385.048014,87.4060338 C388.710775,89.6198961 391,93.5895803 391,97.1775641 C391,102.139669 388.710775,106.109354 385.048014,108.323216 L342.163189,134.126163 L342.163189,72.7487384 Z" id="Shape"></path>
            </g>
        </g>
    </g>
</svg>